<svg width="193" height="25" viewBox="0 0 193 25" fill="none" xmlns="http://www.w3.org/2000/svg">
<path d="M47.0533 2.35918C44.8788 2.35918 42.9762 3.69245 42.9762 5.74569V8.19891C42.9762 10.3055 44.7701 11.5321 47.4881 11.5321H55.3433C57.8711 11.5321 59.7737 10.0122 59.7737 8.01225V5.98568C59.7737 3.23914 57.4633 2.35918 55.2617 2.35918H47.0533ZM61.8394 13.5587H41.2095V16.8118H49.6082V24.5715H53.2776V16.8118H61.8394V13.5587ZM47.923 8.81221C46.5368 8.81221 46.1835 7.95892 46.1835 6.99896C46.1835 6.06567 46.6456 5.26571 47.923 5.26571H54.7181C55.7782 5.26571 56.4849 5.82569 56.4849 6.99896C56.4849 8.19891 55.7782 8.81221 54.7181 8.81221H47.923Z" fill="black"/>
<path d="M71.0771 19.3717C73.2244 19.3717 75.6706 17.5585 75.6706 14.5453V8.38556C75.6706 5.07905 73.4962 3.37247 70.5335 3.37247H68.9842C65.0702 3.37247 63.7384 5.55903 63.7384 8.3589V14.8386C63.7384 18.2784 66.239 19.3717 68.4134 19.3717H71.0771ZM81.6503 9.34552V2.11919H78.144V24.3315H81.6503V12.7854H84.6945V9.34552H81.6503ZM69.3376 16.6252C67.1631 16.6252 67.0272 14.9986 67.0272 14.1453V8.62555C67.0272 7.45227 67.7067 6.199 69.3376 6.199H70.1802C71.811 6.199 72.409 7.71893 72.409 8.89221V14.2786C72.409 15.3186 71.512 16.6252 70.1802 16.6252H69.3376Z" fill="black"/>
<path d="M94.1484 2.11919H90.4247V3.63912H86.0486V6.09234H87.9513C87.3261 6.73231 86.9456 7.61227 86.9456 8.54556V11.5854C86.9456 13.5853 88.6579 15.1586 90.5877 15.1586H93.9581C95.8879 15.1586 97.5731 13.5587 97.5731 11.3188V8.54556C97.5731 7.61227 97.1926 6.73231 96.5674 6.09234H98.5244V3.63912H94.1484V2.11919ZM104.694 20.865H91.8652V16.6518H88.4405V24.0382H104.694V20.865ZM103.933 2.09253H100.427V17.2651H103.933V11.3188H107.141V8.11891H103.933V2.09253ZM94.4202 10.9454C94.4202 11.8254 93.8766 12.4654 92.9796 12.4654H91.4575C90.5877 12.4654 90.0713 11.8254 90.0713 10.9454V9.23886C90.0713 8.38556 90.8596 7.7456 91.7293 7.7456H92.8709C93.7679 7.7456 94.4202 8.38556 94.4202 9.23886V10.9454Z" fill="black"/>
<path d="M111.128 10.2788C111.128 12.5187 112.868 13.6653 114.444 13.6653H117.787C119.527 13.6653 121.076 12.332 121.076 10.2788V6.9723C121.076 4.70574 119.364 3.37247 117.434 3.37247H114.553C112.786 3.37247 111.128 4.86573 111.128 6.62565V10.2788ZM112.949 7.10562C112.949 5.79902 113.792 4.8924 115.531 4.8924H116.673C118.847 4.8924 119.255 6.14567 119.255 7.42561V9.77216C119.255 10.9454 118.902 12.0921 116.945 12.0921H115.259C113.52 12.0921 112.949 11.3188 112.949 9.79883V7.10562ZM113.52 23.4782H127.898V21.7183H115.586V16.7318H113.52V23.4782ZM125.833 15.5586H127.817V2.89249H125.833V15.5586Z" fill="black"/>
<path d="M130.901 5.77236H135.413V8.22557C135.413 10.8121 134.923 15.2119 131.2 16.8385V18.4918C131.716 18.3851 132.151 18.1984 132.613 17.9584C133.809 17.3985 135.576 15.7719 136.473 12.9187C137.342 15.7452 139.082 17.3985 140.305 17.9584C140.767 18.1984 141.202 18.3851 141.746 18.4918V16.8385C137.968 15.1852 137.451 10.7588 137.451 8.22557V5.77236H142.045V4.30576H130.901V5.77236ZM144.382 23.5582H146.149C146.149 19.9583 146.095 15.7719 146.095 12.252H149.791V23.5582H151.449V3.13248H149.791V10.4121H146.095V3.13248H144.382V23.5582Z" fill="black"/>
<path d="M155.398 10.3055C155.398 11.8254 156.811 13.2653 158.578 13.2653H161.513C163.307 13.2653 164.639 11.8254 164.639 10.3055V6.46565C164.639 4.91906 163.416 3.50579 161.622 3.50579H158.496C156.73 3.50579 155.398 4.91906 155.398 6.46565V10.3055ZM157.137 7.07896C157.137 5.74569 158.061 4.99906 159.339 4.99906H160.834C162.193 4.99906 162.954 5.74569 162.954 7.07896V9.63884C162.954 10.9721 162.138 11.7454 160.779 11.7454H159.339C158.061 11.7454 157.137 10.9721 157.137 9.63884V7.07896ZM158.197 21.8516C158.197 23.2115 159.121 24.0648 160.426 24.0648H170.782C172.005 24.0648 172.983 23.0782 172.983 21.9849V19.3984C172.983 17.9584 171.76 17.2651 170.265 17.2651H161.35C159.502 17.2651 158.197 18.0384 158.197 19.5584V21.8516ZM160.1 20.305C160.1 19.6384 160.236 18.7584 162.003 18.7584H169.559C170.483 18.7584 171.271 19.5317 171.271 20.3317V21.2116C171.271 22.2516 170.727 22.7582 169.586 22.7582H162.003C160.779 22.7582 160.1 22.3849 160.1 21.2916V20.305ZM167.303 12.0387H171.19V14.6786H173.146V2.83916H171.19V5.71902H167.357V7.13229H171.19V10.5988H167.303V12.0387Z" fill="black"/>
<path d="M177.018 10.4655C177.018 11.9854 178.431 13.4253 180.198 13.4253H183.188C184.982 13.4253 186.313 11.9854 186.313 10.4655V6.59898C186.313 5.05239 185.09 3.63912 183.296 3.63912H180.116C178.35 3.63912 177.018 5.05239 177.018 6.59898V10.4655ZM178.785 7.23895C178.785 5.90568 179.709 5.15905 180.986 5.15905H182.508C183.867 5.15905 184.628 5.90568 184.628 7.23895V9.8255C184.628 11.1588 183.813 11.9321 182.454 11.9321H180.986C179.709 11.9321 178.785 11.1588 178.785 9.8255V7.23895ZM179.681 23.7982H193V16.4118H191.233V18.7851H181.557V16.4118H179.681V23.7982ZM181.557 22.6516V19.7717H191.233V22.6516H181.557ZM191.206 14.4386H192.918V2.83916H191.206V14.4386Z" fill="black"/>
<g clip-path="url(#clip0_20_3858)">
<path d="M25.3531 7.52795H25.9132V5.82287L25.3531 5.27257V2.52451L23.6405 0.579536V0.55718H21.6098V0.922614L21.4327 0.673259V0.650903H19.7359V0H17.7061V0.650903H16.025V1.20722L15.6333 0.613929L15.628 0.625107V0.619089H13.5981V2.28203L13.4211 2.0258V2.00172L12.0109 0.618229H9.42273L8.01252 2.00172V2.59329L8.00463 2.58555L7.61549 2.03955V2.00086L6.20528 0.617369H1.40933L0 2.00258V4.8779L1.40933 6.26053H1.42599L1.40758 6.26483L1.68191 6.53396H0V8.52537H0.00876451L2.00532 10.2064H2.79325V11.6045H1.68103V12.2571H0V13.6621H0.00525871L0.674868 14.319L0 14.9811V17.5374L1.40933 18.9209H1.99919L0.63718 20.2571V21.9381L2.05177 23.3207L3.96682 25.0017H8.00375L9.32807 23.7034V22.141L7.72504 20.5684H9.32807V20.0834L9.80136 20.5494L9.7961 20.5684H11.2414L11.6761 19.0507L12.7559 20.1109V23.3009L12.7515 23.3113L12.7559 23.3147V23.3199H12.762L14.7621 25H17.3406V24.2683L18.0514 24.9647H25.3733V23.5598L24.5555 22.7584H25.3733V19.7206L24.7002 19.086H25.3733V17.9682L24.6037 17.2863H25.3733V15.8805L24.8071 15.3663H25.3733V14.2476L24.4188 13.3629H25.3531V11.6586L23.8088 10.1453H25.3531V7.5288V7.52795ZM23.3268 9.69046H23.3127V9.67842L23.3268 9.69046Z" fill="#070606"/>
<path d="M15.341 4.21412V0.919189H13.895V11.399H15.341V7.78247V7.51076V5.632H15.8645V4.21412H15.341Z" fill="white"/>
<path d="M11.8952 0.919189H9.55337L8.31494 2.13329V7.03097L9.55337 8.24421H11.8952L13.1337 7.03097V2.13329L11.8952 0.919189ZM11.6893 6.82719H9.75933V2.33449H11.6893V6.82719Z" fill="white"/>
<path d="M17.7658 9.98213V8.6958H16.3223V11.3992H23.3453V9.98213H17.7658Z" fill="white"/>
<path d="M19.4451 0.951323V0.299561H18.0015V0.951323H16.3223V1.78107H21.1392V0.951323H19.4451Z" fill="white"/>
<path d="M23.3458 4.15051V0.856445H21.9033V8.18233H23.3458V5.5684H23.907V4.15051H23.3458Z" fill="white"/>
<path d="M17.5563 2.29053L16.3223 3.50549V7.02999L17.5598 8.24324H19.9034L21.1401 7.02999V3.50549L19.9034 2.29053H17.5563ZM19.6957 6.82707H17.764V3.70841H19.6957V6.82707Z" fill="white"/>
<path d="M13.0506 12.5393V14.7422H12.4131V16.1593H13.0506V23.0286H13.952V12.5393H13.0506Z" fill="white"/>
<path d="M15.3344 12.5393H14.4321V23.0286H15.3344V12.5393Z" fill="white"/>
<path d="M11.0713 13.3708H12.4929V12.5393H8.3043V13.3708H9.62861L8.12988 18.5969H9.27102L10.3491 14.836L11.4297 18.5969H12.5717L11.0713 13.3708Z" fill="white"/>
<path d="M5.87675 12.5403V13.8791H5.53564V15.2987H5.87675V16.2075H5.53564V17.6245H5.87675V18.5953H7.32274V12.5403H5.87675Z" fill="white"/>
<path d="M3.41829 12.5392V11.8892H1.9739V12.5392H0.291992V13.3707H5.1151V12.5392H3.41829Z" fill="white"/>
<path d="M6.08536 19.1565H2.16762L0.929199 20.3715V21.8126L2.17025 23.0275H6.08361L7.32291 21.8126V20.3715L6.08536 19.1565ZM5.87677 21.6096H2.37447V20.5735H5.87677V21.6096Z" fill="white"/>
<path d="M3.8758 13.8806H1.53042L0.291992 15.0964V17.4146L1.53042 18.6295H3.8758L5.1151 17.4146V15.0964L3.8758 13.8806ZM3.66808 17.2117H1.73726V15.2985H3.66808V17.2117Z" fill="white"/>
<path d="M23.368 16.2812H16.3389V17.1119H23.368V16.2812Z" fill="white"/>
<path d="M17.7833 13.3948H23.3689V12.5625H16.3389V15.314H23.3689V14.1962H17.7833V13.3948Z" fill="white"/>
<path d="M21.9254 19.9548H16.3389V22.9944H23.3689V21.8766H17.7833V20.7863H23.3689V18.0356H16.3389V19.1534H21.9254V19.9548Z" fill="white"/>
<path d="M0.310059 6.82812V8.24343H3.0998V11.3991H3.10506H4.54244V8.24343H7.33306V6.82812H0.310059Z" fill="white"/>
<path d="M6.09552 0.919317H1.54673L0.310059 2.13342V4.76884L1.54673 5.98295H6.09552L7.33306 4.76884V2.13256L6.09552 0.918457V0.919317ZM5.88955 4.56506H1.75357V2.33462H5.89043V4.56506H5.88955Z" fill="white"/>
</g>
<defs>
<clipPath id="clip0_20_3858">
<rect width="25.914" height="25" fill="white"/>
</clipPath>
</defs>
</svg>
